<?xml version="1.0" encoding="UTF-8"?>
<svg xmlns="http://www.w3.org/2000/svg" xmlns:xlink="http://www.w3.org/1999/xlink">
<defs>

<svg id="window_close">
 <path fill="#ffffff" d="M13.46,12L19,17.54V19H17.54L12,13.46L6.46,19H5V17.54L10.54,12L5,6.46V5H6.46L12,10.54L17.54,5H19V6.46L13.46,12Z" />
</svg>

<svg id="menu">
   <path fill="#ffffff" d="M3,6H21V8H3V6M3,11H21V13H3V11M3,16H21V18H3V16Z" />
</svg>

<svg id="heart">
   <path d="M12,21.35L10.55,20.03C5.4,15.36 2,12.27 2,8.5C2,5.41 4.42,3 7.5,3C9.24,3 10.91,3.81 12,5.08C13.09,3.81 14.76,3 16.5,3C19.58,3 22,5.41 22,8.5C22,12.27 18.6,15.36 13.45,20.03L12,21.35Z" />
</svg>

<svg id="menu_vert">
   <path d="M12,16A2,2 0 0,1 14,18A2,2 0 0,1 12,20A2,2 0 0,1 10,18A2,2 0 0,1 12,16M12,10A2,2 0 0,1 14,12A2,2 0 0,1 12,14A2,2 0 0,1 10,12A2,2 0 0,1 12,10M12,4A2,2 0 0,1 14,6A2,2 0 0,1 12,8A2,2 0 0,1 10,6A2,2 0 0,1 12,4Z" />
</svg>

<svg id="account_up">
    <path d="M12,4A4,4 0 0,1 16,8A4,4 0 0,1 12,12A4,4 0 0,1 8,8A4,4 0 0,1 12,4M12,14C16.42,14 20,15.79 20,18V20H4V18C4,15.79 7.58,14 12,14Z" />
</svg>

<svg id="account-password">
    <path d="M18,8A2,2 0 0,1 20,10V20A2,2 0 0,1 18,22H6C4.89,22 4,21.1 4,20V10A2,2 0 0,1 6,8H15V6A3,3 0 0,0 12,3A3,3 0 0,0 9,6H7A5,5 0 0,1 12,1A5,5 0 0,1 17,6V8H18M12,17A2,2 0 0,0 14,15A2,2 0 0,0 12,13A2,2 0 0,0 10,15A2,2 0 0,0 12,17Z" />
</svg>

<svg id ="seta" style="width:24px;height:24px" viewBox="0 0 24 24">
    <path d="M4,11V13H16L10.5,18.5L11.92,19.92L19.84,12L11.92,4.08L10.5,5.5L16,11H4Z" />
</svg>

<svg id ="search" style="width:24px;height:24px" viewBox="0 0 24 24">
    <path d="M4,11V13H16L10.5,18.5L11.92,19.92L19.84,12L11.92,4.08L10.5,5.5L16,11H4Z" />
</svg>

</defs>
</svg>




