<?xml version="1.0" encoding="UTF-8"?>
<svg xmlns="http://www.w3.org/2000/svg" xmlns:xlink="http://www.w3.org/1999/xlink">
<!DOCTYPE svg  PUBLIC '-//W3C//DTD SVG 1.1//EN'  'http://www.w3.org/Graphics/SVG/1.1/DTD/svg11.dtd'>
<defs>


<svg id="facebook-account" height="48px" version="1.1" viewBox="0 0 48 48" width="48px" xmlns="http://www.w3.org/2000/svg" xmlns:sketch="http://www.bohemiancoding.com/sketch/ns" xmlns:xlink="http://www.w3.org/1999/xlink"><title/><defs/><g fill="none" fill-rule="evenodd" id="shadow" stroke="none" stroke-width="1"><g id="facebook"><path d="M24,48 C37.2548347,48 48,37.2548347 48,24 C48,10.7451653 37.2548347,0 24,0 C10.7451653,0 0,10.7451653 0,24 C0,37.2548347 10.7451653,48 24,48 Z" fill="#346DA6" id="Facebook"/><path d="M1.34050988,31.9285231 C3.74441512,38.7992888 9.1849849,44.2438116 16.0532227,46.6530951 L24.9996078,37.7067101 L24,30.569033 L29.5994324,23.9960899 L23.1963074,22.700284 L30.5278412,14.7687507 L21.7502835,11.5187495 L1.34050988,31.9285231 Z" fill="#000000" fill-opacity="0.400000006"/><path d="M20.3697792,37.8514504 L20.3697792,23.999169 L17.5546312,23.999169 L17.5546312,19.4074851 L20.3697791,19.4074851 L20.3697792,16.6307091 C20.3697792,12.8853138 21.4895959,10.1844952 25.5904818,10.1844952 L30.4690876,10.1844952 L30.4690876,14.766752 L27.0338036,14.766752 C25.3135155,14.766752 24.921499,15.909901 24.921499,17.1070088 L24.921499,19.4074842 L30.2155385,19.4074847 L29.4929383,23.999169 L24.921499,23.999169 L24.921499,37.8514499 L20.3697792,37.8514504 Z" fill="#FFFFFF"/></g></g></svg>

<svg id="github-account" height="48px" version="1.1" viewBox="0 0 48 48" width="48px" xmlns="http://www.w3.org/2000/svg" xmlns:sketch="http://www.bohemiancoding.com/sketch/ns" xmlns:xlink="http://www.w3.org/1999/xlink"><title/><defs/><g fill="none" fill-rule="evenodd" id="shadow" stroke="none" stroke-width="1"><g id="github"><path d="M24,48 C37.2548347,48 48,37.2548347 48,24 C48,10.7451653 37.2548347,0 24,0 C10.7451653,0 0,10.7451653 0,24 C0,37.2548347 10.7451653,48 24,48 Z" fill="#424242"/><path d="M0.188946553,27.0260696 C1.5827542,38.1048161 10.5284776,46.8328177 21.7080211,47.8919789 L34.4477109,35.1522891 L36.7374084,22.0444199 L32.2002228,13.5405526 L13.6744636,13.5405526 L0.188946553,27.0260696 Z" fill="#000000" fill-opacity="0.400000006"/><path d="M20.3402192,38.013511 C20.3402192,37.6537383 20.3275258,36.7017817 20.3202724,35.4374644 C16.2121423,36.3522352 15.345364,33.4071195 15.345364,33.4071195 C14.6735202,31.6575275 13.7051947,31.1917753 13.7051947,31.1917753 C12.3642271,30.2519041 13.806742,30.2714266 13.806742,30.2714266 C15.2891504,30.3783358 16.0688882,31.8323007 16.0688882,31.8323007 C17.3862823,34.1461874 19.5251212,33.4787022 20.3674193,33.0910402 C20.5016067,32.1121239 20.8833156,31.4446387 21.304918,31.0662732 C18.025486,30.684189 14.577413,29.3845452 14.577413,23.5817005 C14.577413,21.9287916 15.1531496,20.5770876 16.0979017,19.5182218 C15.9464875,19.1352081 15.4387512,17.5957158 16.2429692,15.5105218 C16.2429692,15.5105218 17.4832962,15.1033373 20.3039523,17.0630291 C21.481719,16.7274273 22.7456195,16.5582319 24.0022667,16.552654 C25.2561938,16.5582319 26.5191877,16.7274273 27.6996744,17.0630291 C30.5185171,15.1033373 31.7570308,15.5105218 31.7570308,15.5105218 C32.5630621,17.5947861 32.0562325,19.1342784 31.9039117,19.5182218 C32.8504771,20.5770876 33.4216803,21.9287916 33.4216803,23.5817005 C33.4216803,29.3994195 29.9681673,30.6795408 26.6778552,31.0541878 C27.2091649,31.5217993 27.6806343,32.4458665 27.6806343,33.858927 C27.6806343,35.883694 27.6615942,37.5170805 27.6615942,38.013511 C27.6615942,38.4188362 27.9281557,38.8892366 28.6779733,38.7414231 C34.54142,36.735249 38.7692308,31.0625546 38.7692308,24.3746878 C38.7692308,16.0106709 32.1559664,9.23076923 23.9995467,9.23076923 C15.8440336,9.23076923 9.23076923,16.0106709 9.23076923,24.3746878 C9.2316759,31.0644139 13.4631133,36.7408268 19.3320001,38.7432824 C20.070031,38.8817995 20.3402192,38.414188 20.3402192,38.013511 Z" fill="#FFFFFF"/></g></g></svg>

<svg id="linkedin-account" height="48px" version="1.1" viewBox="0 0 48 48" width="48px" xmlns="http://www.w3.org/2000/svg" xmlns:sketch="http://www.bohemiancoding.com/sketch/ns" xmlns:xlink="http://www.w3.org/1999/xlink"><title/><defs/><g fill="none" fill-rule="evenodd" id="shadow" stroke="none" stroke-width="1"><g id="linkedin"><path d="M24,48 C37.2548347,48 48,37.2548347 48,24 C48,10.7451653 37.2548347,0 24,0 C10.7451653,0 0,10.7451653 0,24 C0,37.2548347 10.7451653,48 24,48 Z" fill="#346DA6" id="Linkedin"/><path d="M0.161727821,26.8011643 C1.47690406,38.1150728 10.6606301,47.0285399 22.0969983,47.925658 L35.1401742,34.882482 L33.8884674,27.8420349 L31.2010254,22.1290207 L24.0298203,23.2835988 L20.3593323,20.3594663 L15.9597488,25.4853284 L13.1972229,20.3594663 L16.8512026,16.912067 L13.421326,13.5415662 L0.161727821,26.8011643 Z" fill="#000000" fill-opacity="0.400000006"/><path d="M17.5064603,35.058521 L17.5064603,20.4194712 L12.981896,20.4194712 L12.981896,35.058521 L17.5064603,35.058521 Z M17.5064603,15.2305716 C17.4795106,13.920528 16.6064125,12.9230769 15.1880435,12.9230769 C13.7693053,12.9230769 12.8423077,13.920528 12.8423077,15.2305716 C12.8423077,16.5121619 13.7423555,17.5384615 15.1337748,17.5384615 L15.1607246,17.5384615 C16.6064125,17.5384615 17.5064603,16.5121619 17.5064603,15.2305716 Z M24.8880335,35.0585214 L24.8880335,26.7178983 C24.8880335,26.2715212 24.9202964,25.825144 25.0515578,25.5069346 C25.4104273,24.6146223 26.2271649,23.690931 27.5985592,23.690931 C29.3951167,23.690931 30.5218224,24.7105269 30.5218224,26.7178982 L30.5218224,35.0585213 L35.0769231,35.0585214 L35.0769231,26.4947097 C35.0769231,21.9071902 32.6280362,19.7725352 29.3615279,19.7725352 C26.6832651,19.7725352 25.507658,21.2698874 24.8548866,22.2890416 L24.8875914,20.3311298 L20.3403696,20.3311298 C20.4057793,21.7325772 20.3403696,35.0585213 20.3403696,35.0585213 L24.8880335,35.0585214 Z" fill="#FFFFFF"/></g></g></svg>

<svg id="google-account" height="48px" version="1.1" viewBox="0 0 48 48" width="48px" xmlns="http://www.w3.org/2000/svg" xmlns:sketch="http://www.bohemiancoding.com/sketch/ns" xmlns:xlink="http://www.w3.org/1999/xlink"><title/><defs/><g fill="none" fill-rule="evenodd" id="shadow" stroke="none" stroke-width="1"><g id="google+"><path d="M24,48 C37.2548347,48 48,37.2548347 48,24 C48,10.7451653 37.2548347,0 24,0 C10.7451653,0 0,10.7451653 0,24 C0,37.2548347 10.7451653,48 24,48 Z" fill="#CA4638" id="Google+"/><path d="M0.402057344,28.3979427 C1.94451219,36.726767 7.78769194,43.5464407 15.5417032,46.4670706 L36.9902749,25.0184989 L31.8993042,24.5315872 L31.4860046,19.382457 L23.2029099,26.7855415 L21.4882965,24.5315872 L24.3685989,19.7933365 L24.809375,15.7863968 L28.0330872,11.9759193 L23.2029099,12.5104126 L21.1026718,13.1701233 L18.3019897,12.5104126 L14.7825937,14.0174063 L0.402057344,28.3979427 Z" fill="#000000" fill-opacity="0.400000006" id="google_plus"/><path d="M22.3698281,21.8942092 C23.1534982,21.1080371 23.2220568,20.0171044 23.2220568,19.402579 C23.2220568,16.9472297 21.7553027,13.1257124 18.9233815,13.1257124 C18.0363732,13.1257124 17.0813066,13.5695919 16.5348394,14.252676 C15.9550938,14.9690384 15.7839474,15.889075 15.7839474,16.7763336 C15.7839474,19.0615374 17.1145851,22.8492758 20.0485936,22.8492758 C20.9015728,22.8490256 21.8228605,22.4394254 22.3698281,21.8942092 L22.3698281,21.8942092 Z M21.3794814,28.3755005 C21.106498,28.3407208 20.9358521,28.3407208 20.595311,28.3407208 C20.2880483,28.3407208 18.4454729,28.4092794 17.012748,28.8874382 C16.2623565,29.1604216 14.0789897,29.9783709 14.0789897,32.4009421 C14.0789897,34.8230129 16.4327521,36.5622499 20.0833733,36.5622499 C23.3586736,36.5622499 25.0981608,34.9936588 25.0981608,32.8788507 C25.0981608,31.1383627 23.9726985,30.2180759 21.3794814,28.3755005 L21.3794814,28.3755005 Z M31.3846154,24.9230769 L27.6923077,24.9230769 L27.6923077,23.0769231 L31.3846154,23.0769231 L31.3846154,19.3846154 L33.2307692,19.3846154 L33.2307692,23.0769231 L36.9230769,23.0769231 L36.9230769,24.9230769 L33.2307692,24.9230769 L33.2307692,28.6153846 L31.3846154,28.6153846 L31.3846154,24.9230769 Z M23.8020526,13.2277997 C24.5862231,13.8763542 26.2241234,15.2405205 26.2241234,17.8339879 C26.2241234,20.3586464 24.7911483,21.5526672 23.3586736,22.6778792 C22.9152945,23.1215085 22.4028564,23.5994171 22.4028564,24.3500589 C22.4028564,25.1007007 22.9152945,25.5103009 23.2896145,25.8168129 L24.5184151,26.771379 C26.0199489,28.0334581 27.383865,29.1942005 27.383865,31.5487135 C27.383865,34.7547045 24.2792106,37.9962259 18.4111936,37.9962259 C13.465215,37.9962259 11.0769231,35.6424635 11.0769231,33.1173046 C11.0769231,31.8890044 11.6911983,30.1495172 13.7046697,28.954996 C15.8192276,27.6583874 18.6856783,27.4892428 20.2199901,27.3859044 C19.7423317,26.771379 19.1966151,26.1225743 19.1966151,25.0661711 C19.1966151,24.4861753 19.367261,24.1443831 19.5379069,23.7352833 C19.1618354,23.7690622 18.7875154,23.8040921 18.4457232,23.8040921 C14.8301319,23.8040921 12.7831318,21.1077869 12.7831318,18.4475124 C12.7831318,16.8789213 13.4992441,15.1379328 14.9662483,13.8758538 C16.9111612,12.2729834 19.2306442,12 21.0727192,12 L28.1002274,12 L25.9168607,13.2272993 L23.8020526,13.2272993 L23.8020526,13.2277997 Z" fill="#FFFFFF" id="g+"/></g></g></svg>





</defs>
</svg>